<svg width="24" height="24" viewBox="0 0 24 24" fill="#FF9222" xmlns="http://www.w3.org/2000/svg">
<path d="M23.5219 14.7729H21.3705V6.11953C21.3705 5.85548 21.1565 5.64144 20.8924 5.64144H18.4064V4.11156C18.4064 3.84752 18.1923 3.63348 17.9283 3.63348H14.9641C14.7001 3.63348 14.4861 3.84752 14.4861 4.11156V7.45818H12.4781V5.35459C12.4781 5.09054 12.264 4.8765 12 4.8765H9.51394V3.49005C9.51394 3.226 9.2999 3.01196 9.03586 3.01196H6.07171C5.80767 3.01196 5.59363 3.226 5.59363 3.49005V4.8765H3.10757C2.84352 4.8765 2.62948 5.09054 2.62948 5.35459V14.7729H0.478088C0.21404 14.7729 0 14.987 0 15.251V16.9721C0 17.2362 0.21404 17.4502 0.478088 17.4502H2.48606V20.51C2.48606 20.774 2.7001 20.9881 2.96414 20.9881C3.22819 20.9881 3.44223 20.774 3.44223 20.51V17.4502H23.5219C23.786 17.4502 24 17.2362 24 16.9721V15.251C24 14.987 23.786 14.7729 23.5219 14.7729ZM18.4064 6.59762H20.4143V14.7729H18.4064V6.59762ZM15.4422 4.58965H17.4502V14.7729H15.4422V4.58965ZM12.4781 8.41435H14.4861V14.7729H12.4781V8.41435ZM9.51394 5.83268H11.5219V14.7729H9.51394V5.83268ZM6.5498 3.96814H8.55777V14.7729H6.5498V3.96814ZM3.58566 5.83268H5.59363V14.7729H3.58566V5.83268ZM23.0438 16.494H0.956175V15.7291H23.0438V16.494Z" fill="#FF9222"/>
<path d="M21.0357 18.1195C20.7717 18.1195 20.5576 18.3335 20.5576 18.5976V20.5099C20.5576 20.774 20.7717 20.988 21.0357 20.988C21.2998 20.988 21.5138 20.774 21.5138 20.5099V18.5976C21.5138 18.3335 21.2998 18.1195 21.0357 18.1195Z" fill="#FF9222"/>
<path d="M4.58942 6.69324C4.32537 6.69324 4.11133 6.90728 4.11133 7.17132V7.6016C4.11133 7.86565 4.32537 8.07969 4.58942 8.07969C4.85346 8.07969 5.0675 7.86565 5.0675 7.6016V7.17132C5.0675 6.90728 4.85346 6.69324 4.58942 6.69324Z" fill="#FF9222"/>
<path d="M4.58942 8.8446C4.32537 8.8446 4.11133 9.05864 4.11133 9.32269V13.6255C4.11133 13.8895 4.32537 14.1036 4.58942 14.1036C4.85346 14.1036 5.0675 13.8895 5.0675 13.6255V9.32269C5.0675 9.05864 4.85346 8.8446 4.58942 8.8446Z" fill="#FF9222"/>
<path d="M13.482 9.17932C13.2179 9.17932 13.0039 9.39336 13.0039 9.65741V9.92194C13.0039 10.186 13.2179 10.4 13.482 10.4C13.746 10.4 13.9601 10.186 13.9601 9.92194V9.65741C13.9601 9.39336 13.746 9.17932 13.482 9.17932Z" fill="#FF9222"/>
<path d="M13.482 11.0917C13.2179 11.0917 13.0039 11.3057 13.0039 11.5698V13.6255C13.0039 13.8896 13.2179 14.1036 13.482 14.1036C13.746 14.1036 13.9601 13.8896 13.9601 13.6255V11.5698C13.9601 11.3057 13.746 11.0917 13.482 11.0917Z" fill="#FF9222"/>
</svg>
