<svg xmlns="http://www.w3.org/2000/svg" viewBox="0 0 453 551"><path fill="#FFA952" d="M100.994 80.934c-8.374 2.547-16.812 9.875-21.337 18.529L76.5 105.5v344l2.661 5.04c3.237 6.134 9.632 12.2 16.339 15.5l5 2.46 134.75.268 134.75.267V80l-133.25.086c-73.287.047-134.378.429-135.756.848m2.844 11.246c-19.698 5.256-22.011 33.839-3.526 43.584 5.046 2.66 5.712 2.744 24.259 3.06l19.072.324 5.915-12.183c3.254-6.701 6.809-12.809 7.901-13.574 2.779-1.947 90.554-2.083 90.517-.141-.012.688-2.715 6.4-6.004 12.695-3.29 6.295-5.616 11.811-5.169 12.258.447.447 28.012.697 61.255.555l60.442-.258v-7.673l-14.339-.164c-13.767-.156-14.415-.257-16.25-2.524-2.282-2.819-2.378-4.117-.494-6.698 1.26-1.727 3.053-1.996 16.25-2.441l14.833-.5v-7l-17.6-.5c-19.185-.545-20.9-1.045-20.9-6.099 0-5.157 2.611-5.885 20.962-5.844 17.403.038 18.377-.218 17.866-4.685L358.5 91.5 233 91.351c-79.031-.093-126.856.214-129.162.829m59.053 34.07c-.649 1.237-3.14 5.926-5.535 10.42L153 144.839v80.081c0 51.46.349 80.08.977 80.08.537 0 1.588-1.012 2.335-2.25a1094.91 1094.91 0 0 1 5.409-8.75c2.227-3.575 8.768-14.503 14.536-24.285l10.485-17.785 15.737 26.285c8.655 14.457 15.913 26.473 16.129 26.702 1.612 1.712 1.892-10.387 1.892-81.752V142.5l4.744-8.59c2.609-4.724 4.446-8.887 4.083-9.25-.363-.363-15.195-.66-32.958-.66H164.07l-1.179 2.25m-75.657 169L87.5 446.5l2.741 4.663c1.508 2.565 4.208 5.558 6 6.653 3.104 1.895 10.807 4.469 11.45 3.826.167-.166.417-70.219.556-155.672l.253-155.368-6.046-1.094c-3.326-.601-7.654-2.087-9.618-3.301-1.965-1.214-4.089-2.207-4.72-2.207-.86 0-1.081 37.95-.882 151.25m33.192-143.907c-.242.636-.324 70.602-.183 155.479l.257 154.323 119-.092 119-.092V150.5h-126L232 235c-.275 46.475-.89 85.3-1.368 86.278-1.773 3.633-9.456 5.109-12.867 2.472-.889-.687-7.965-11.825-15.724-24.75-7.758-12.925-14.514-23.5-15.012-23.5-1.147 0-6.039 7.572-18.74 29.007-5.538 9.346-10.935 17.775-11.995 18.731-3.499 3.158-7.556 3.254-11.112.262L142 320.822v-83.829c0-46.106-.275-84.545-.61-85.42-.762-1.985-20.216-2.199-20.964-.23" fill-rule="evenodd"/></svg>
