<svg width="24" height="25" viewBox="0 0 24 25" fill="#FF9222" xmlns="http://www.w3.org/2000/svg">
<g clip-path="url(#clip0_333_65)">
<path d="M9 17.5H7V10.5H9V17.5ZM13 17.5H11V7.5H13V17.5ZM17 17.5H15V13.5H17V17.5ZM19 19.5H5V5.5H19V19.5ZM19 3.5H5C3.9 3.5 3 4.4 3 5.5V19.5C3 20.6 3.9 21.5 5 21.5H19C20.1 21.5 21 20.6 21 19.5V5.5C21 4.4 20.1 3.5 19 3.5Z" fill="#FF9222"/>
</g>
<defs>
<clipPath id="clip0_333_65">
<rect width="24" height="24" fill="#FF9222" transform="translate(0 0.5)"/>
</clipPath>
</defs>
</svg>
