<svg id="svg" version="1.1" xmlns="http://www.w3.org/2000/svg" xmlns:xlink="http://www.w3.org/1999/xlink" width="400" height="341.8994413407821" viewBox="0, 0, 400,341.8994413407821"><g id="svgg"><path id="path0" d="M12.992 27.933 C -5.530 84.509,0.959 127.204,31.709 151.073 L 37.720 155.739 32.282 163.381 C -18.436 234.663,62.517 333.858,143.111 299.188 L 154.184 294.424 165.919 304.527 C 172.373 310.083,182.179 320.214,187.709 327.039 C 200.288 342.561,199.693 342.649,214.902 323.009 C 221.868 314.012,231.174 303.901,235.580 300.540 L 243.592 294.429 255.316 299.662 C 333.191 334.427,414.304 235.631,366.113 164.712 L 360.547 156.521 372.162 144.530 C 397.767 118.094,401.909 80.266,384.890 28.287 L 378.920 10.056 377.522 26.816 C 373.395 76.285,346.382 103.725,279.501 126.387 C 234.621 141.594,212.118 159.872,203.917 187.783 C 200.248 200.268,196.648 205.253,196.648 197.849 C 196.648 169.152,167.881 143.439,115.611 125.415 C 50.934 103.114,24.313 75.590,20.243 26.816 L 18.845 10.056 12.992 27.933 M184.437 80.734 C 160.740 84.124,133.808 96.192,118.965 110.072 C 113.121 115.536,114.030 116.861,126.257 120.708 C 163.019 132.271,184.435 152.690,197.703 188.827 C 199.072 192.558,199.816 191.741,202.205 183.879 C 210.959 155.079,236.630 131.679,271.508 120.708 C 284.766 116.537,285.033 115.270,274.465 106.693 C 249.927 86.777,214.200 76.476,184.437 80.734 M78.212 173.184 C 87.246 176.257,96.413 178.771,98.584 178.771 C 104.176 178.771,105.670 182.321,102.562 188.222 C 97.486 197.860,86.232 199.806,79.377 192.231 C 73.703 185.962,71.962 188.262,73.702 199.727 C 79.905 240.606,137.321 241.444,144.195 200.756 L 145.623 192.302 158.287 198.888 C 178.882 209.599,179.607 210.489,178.100 223.212 C 175.215 247.569,153.784 273.724,131.221 280.425 C 68.167 299.150,14.709 232.340,49.213 177.933 C 56.854 165.884,56.784 165.896,78.212 173.184 M348.552 177.933 C 383.157 232.499,329.371 299.082,265.910 280.236 C 249.248 275.288,228.258 254.318,222.806 237.174 C 215.646 214.656,218.088 209.330,240.782 197.974 L 252.514 192.103 252.514 197.022 C 252.514 240.117,316.966 242.264,323.742 199.395 C 325.749 186.702,324.830 185.317,318.954 192.179 C 312.294 199.957,300.297 197.892,295.126 188.077 C 291.630 181.444,290.836 182.010,314.219 174.462 C 340.819 165.876,340.912 165.886,348.552 177.933 M201.139 239.797 C 201.186 245.473,212.237 265.850,219.823 274.246 L 227.790 283.064 221.169 287.959 C 213.808 293.402,201.258 313.737,200.981 320.670 C 200.871 323.420,199.571 321.779,197.602 316.404 C 193.921 306.357,185.043 293.751,176.804 286.870 L 171.116 282.120 178.589 273.609 C 186.622 264.460,196.591 245.009,196.626 238.416 C 196.638 236.192,197.654 234.995,198.883 235.754 C 200.112 236.514,201.127 238.333,201.139 239.797 " stroke="#000000" fill="#FF9222" fill-rule="evenodd"></path></g></svg>
