<svg width="24" height="25" viewBox="0 0 24 25" fill="#FF9222" xmlns="http://www.w3.org/2000/svg">
<g clip-path="url(#clip0_333_59)">
<path d="M2 17.8334V16.7292C2 16.1936 2.28819 15.7576 2.86458 15.4212C3.44097 15.0849 4.19706 14.9167 5.13283 14.9167C5.30179 14.9167 5.46426 14.9202 5.62023 14.9271C5.77619 14.9341 5.93056 14.949 6.08333 14.972C5.97222 15.2129 5.88889 15.4571 5.83333 15.7046C5.77778 15.952 5.75 16.2102 5.75 16.4792V17.8334H2ZM7 17.8334V16.4792C7 16.0348 7.12153 15.6285 7.36458 15.2605C7.60764 14.8924 7.95139 14.5695 8.39583 14.2917C8.84028 14.0139 9.37153 13.8056 9.98958 13.6667C10.6076 13.5278 11.2778 13.4584 12 13.4584C12.7361 13.4584 13.4132 13.5278 14.0312 13.6667C14.6493 13.8056 15.1806 14.0139 15.625 14.2917C16.0694 14.5695 16.4097 14.8924 16.6458 15.2605C16.8819 15.6285 17 16.0348 17 16.4792V17.8334H7ZM18.25 17.8334V16.4792C18.25 16.2034 18.2257 15.9434 18.1771 15.6994C18.1285 15.4554 18.0486 15.2134 17.9375 14.9735C18.0903 14.9495 18.2442 14.9341 18.3994 14.9271C18.5546 14.9202 18.7131 14.9167 18.875 14.9167C19.8125 14.9167 20.5677 15.0818 21.1406 15.4119C21.7135 15.742 22 16.1811 22 16.7292V17.8334H18.25ZM8.25 16.5834H15.75V16.4584C15.75 15.9445 15.3993 15.5243 14.6979 15.198C13.9965 14.8716 13.0972 14.7084 12 14.7084C10.9028 14.7084 10.0035 14.8716 9.30208 15.198C8.60069 15.5243 8.25 15.9514 8.25 16.4792V16.5834ZM5.11598 14.2917C4.71922 14.2917 4.37847 14.1489 4.09375 13.8633C3.80903 13.5777 3.66667 13.2344 3.66667 12.8334C3.66667 12.4306 3.80946 12.0868 4.09504 11.8021C4.38064 11.5174 4.72396 11.375 5.125 11.375C5.52778 11.375 5.87153 11.5174 6.15625 11.8021C6.44097 12.0868 6.58333 12.4336 6.58333 12.8424C6.58333 13.2392 6.44097 13.5799 6.15625 13.8646C5.87153 14.1493 5.52477 14.2917 5.11598 14.2917ZM18.866 14.2917C18.4692 14.2917 18.1285 14.1489 17.8438 13.8633C17.559 13.5777 17.4167 13.2344 17.4167 12.8334C17.4167 12.4306 17.5595 12.0868 17.845 11.8021C18.1306 11.5174 18.474 11.375 18.875 11.375C19.2778 11.375 19.6215 11.5174 19.9062 11.8021C20.191 12.0868 20.3333 12.4336 20.3333 12.8424C20.3333 13.2392 20.191 13.5799 19.9062 13.8646C19.6215 14.1493 19.2748 14.2917 18.866 14.2917ZM12 12.8334C11.3056 12.8334 10.7153 12.5903 10.2292 12.1042C9.74306 11.6181 9.5 11.0278 9.5 10.3334C9.5 9.62504 9.74306 9.03129 10.2292 8.55212C10.7153 8.07296 11.3056 7.83337 12 7.83337C12.7083 7.83337 13.3021 8.07296 13.7812 8.55212C14.2604 9.03129 14.5 9.62504 14.5 10.3334C14.5 11.0278 14.2604 11.6181 13.7812 12.1042C13.3021 12.5903 12.7083 12.8334 12 12.8334ZM12.0073 11.5834C12.3635 11.5834 12.6597 11.4629 12.8958 11.2219C13.1319 10.9809 13.25 10.6823 13.25 10.3261C13.25 9.96983 13.1309 9.67365 12.8927 9.43754C12.6545 9.20143 12.3594 9.08337 12.0073 9.08337C11.6552 9.08337 11.3576 9.20246 11.1146 9.44064C10.8715 9.67883 10.75 9.97396 10.75 10.3261C10.75 10.6782 10.8705 10.9757 11.1115 11.2188C11.3525 11.4618 11.6511 11.5834 12.0073 11.5834Z" fill="#FF9222"/>
</g>
<defs>
<clipPath id="clip0_333_59">
<rect width="24" height="24" fill="#FF9222" transform="translate(0 0.5)"/>
</clipPath>
</defs>
</svg>
