<svg width="24" height="24" viewBox="0 0 24 24" fill="none" xmlns="http://www.w3.org/2000/svg">
<g clip-path="url(#clip0_5_529)">
<path d="M15.6666 15.75C13.3266 15.75 8.66659 16.92 8.66659 19.25V21H22.6666V19.25C22.6666 16.92 18.0066 15.75 15.6666 15.75ZM11.0066 19C11.8466 18.42 13.8766 17.75 15.6666 17.75C17.4566 17.75 19.4866 18.42 20.3266 19H11.0066ZM15.6666 14C17.5966 14 19.1666 12.43 19.1666 10.5C19.1666 8.56998 17.5966 6.99998 15.6666 6.99998C13.7366 6.99998 12.1666 8.56998 12.1666 10.5C12.1666 12.43 13.7366 14 15.6666 14ZM15.6666 8.99998C16.4966 8.99998 17.1666 9.66998 17.1666 10.5C17.1666 11.33 16.4966 12 15.6666 12C14.8366 12 14.1666 11.33 14.1666 10.5C14.1666 9.66998 14.8366 8.99998 15.6666 8.99998ZM8.59641 14.3021H2.12273C1.89904 14.3021 1.71154 14.2207 1.56023 14.0581C1.40891 13.8954 1.33325 13.6938 1.33325 13.4534C1.33325 13.2129 1.40891 13.013 1.56023 12.8536C1.71154 12.6942 1.89904 12.6146 2.12273 12.6146H8.59641C8.82009 12.6146 9.00759 12.6959 9.15891 12.8585C9.31023 13.0212 9.38588 13.2228 9.38588 13.4632C9.38588 13.7037 9.31023 13.9036 9.15891 14.063C9.00759 14.2224 8.82009 14.3021 8.59641 14.3021ZM12.9911 5.02081H2.12273C1.89904 5.02081 1.71154 4.93948 1.56023 4.77683C1.40891 4.61415 1.33325 4.41259 1.33325 4.17214C1.33325 3.93167 1.40891 3.73175 1.56023 3.57238C1.71154 3.413 1.89904 3.33331 2.12273 3.33331H12.9911C13.2148 3.33331 13.4023 3.41464 13.5536 3.5773C13.705 3.73997 13.7806 3.94153 13.7806 4.18198C13.7806 4.42245 13.705 4.62238 13.5536 4.78175C13.4023 4.94113 13.2148 5.02081 12.9911 5.02081ZM10.5175 9.66144H2.12273C1.89904 9.66144 1.71154 9.58011 1.56023 9.41745C1.40891 9.25478 1.33325 9.05322 1.33325 8.81277C1.33325 8.5723 1.40891 8.37238 1.56023 8.213C1.71154 8.05363 1.89904 7.97394 2.12273 7.97394H11.3333C11.1403 8.21769 10.976 8.47945 10.8404 8.75922C10.7049 9.03897 10.5972 9.33971 10.5175 9.66144Z" fill="#FF9222"/>
</g>
<defs>
<clipPath id="clip0_5_529">
<rect width="24" height="24" fill="white"/>
</clipPath>
</defs>
</svg>
