<svg width="24" height="24" viewBox="0 0 24 24" fill="none" xmlns="http://www.w3.org/2000/svg">
<g clip-path="url(#clip0_5_537)">
<path d="M18.5659 15.7L17.5432 14.6773C18.1977 13.9818 18.6989 13.2693 19.0466 12.5398C19.3943 11.8102 19.5682 10.9136 19.5682 9.85C19.5682 8.78636 19.3943 7.88977 19.0466 7.16023C18.6989 6.43068 18.1977 5.71818 17.5432 5.02273L18.5659 4C19.3295 4.79091 19.9261 5.65341 20.3557 6.5875C20.7852 7.52159 21 8.60909 21 9.85C21 11.0909 20.7852 12.1784 20.3557 13.1125C19.9261 14.0466 19.3295 14.9091 18.5659 15.7ZM15.7227 12.7955L14.7 11.7727C14.9455 11.5 15.1364 11.2102 15.2727 10.9034C15.4091 10.5966 15.4773 10.2455 15.4773 9.85C15.4773 9.45455 15.4091 9.10341 15.2727 8.79659C15.1364 8.48977 14.9455 8.2 14.7 7.92727L15.7227 6.90455C16.0773 7.28636 16.3636 7.73295 16.5818 8.24432C16.8 8.75568 16.9091 9.29091 16.9091 9.85C16.9091 10.4091 16.8 10.9443 16.5818 11.4557C16.3636 11.967 16.0773 12.4136 15.7227 12.7955ZM9.54545 12.9182C8.64545 12.9182 7.90909 12.6318 7.33636 12.0591C6.76364 11.4864 6.47727 10.75 6.47727 9.85C6.47727 8.95 6.76364 8.21364 7.33636 7.64091C7.90909 7.06818 8.64545 6.78182 9.54545 6.78182C10.4455 6.78182 11.1818 7.06818 11.7545 7.64091C12.3273 8.21364 12.6136 8.95 12.6136 9.85C12.6136 10.75 12.3273 11.4864 11.7545 12.0591C11.1818 12.6318 10.4455 12.9182 9.54545 12.9182ZM3 19.4841V17.5614C3 17.0432 3.12955 16.6034 3.38864 16.242C3.64773 15.8807 3.98182 15.5977 4.39091 15.3932C5.08636 15.0386 5.90795 14.7455 6.85568 14.5136C7.80341 14.2818 8.7 14.1659 9.54545 14.1659C10.3909 14.1659 11.2841 14.2818 12.225 14.5136C13.1659 14.7455 13.9841 15.0386 14.6795 15.3932C15.0886 15.5977 15.4261 15.8807 15.692 16.242C15.958 16.6034 16.0909 17.0432 16.0909 17.5614V19.4841H3ZM4.22727 18.2568H14.8636V17.5614C14.8636 17.3432 14.8057 17.142 14.6898 16.958C14.5739 16.7739 14.4068 16.6205 14.1886 16.4977C13.5341 16.1295 12.7909 15.8534 11.9591 15.6693C11.1273 15.4852 10.3227 15.3932 9.54545 15.3932C8.76818 15.3932 7.96023 15.492 7.12159 15.6898C6.28295 15.8875 5.53636 16.1568 4.88182 16.4977C4.69091 16.5932 4.53409 16.7398 4.41136 16.9375C4.28864 17.1352 4.22727 17.3432 4.22727 17.5614V18.2568ZM9.54545 11.6909C10.0773 11.6909 10.517 11.517 10.8648 11.1693C11.2125 10.8216 11.3864 10.3818 11.3864 9.85C11.3864 9.31818 11.2125 8.87841 10.8648 8.53068C10.517 8.18295 10.0773 8.00909 9.54545 8.00909C9.01364 8.00909 8.57386 8.18295 8.22614 8.53068C7.87841 8.87841 7.70455 9.31818 7.70455 9.85C7.70455 10.3818 7.87841 10.8216 8.22614 11.1693C8.57386 11.517 9.01364 11.6909 9.54545 11.6909Z" fill="#FF9222"/>
</g>
<defs>
<clipPath id="clip0_5_537">
<rect width="24" height="24" fill="white"/>
</clipPath>
</defs>
</svg>
